<mxfile host="Electron" agent="Mozilla/5.0 (Windows NT 10.0; Win64; x64) AppleWebKit/537.36 (KHTML, like Gecko) draw.io/25.0.2 Chrome/128.0.6613.186 Electron/32.2.5 Safari/537.36" version="25.0.2">
  <diagram name="Page-1" id="9fDm9l64JJiseUmivxtQ">
    <mxGraphModel dx="780" dy="504" grid="0" gridSize="10" guides="1" tooltips="1" connect="1" arrows="1" fold="1" page="1" pageScale="1" pageWidth="850" pageHeight="1100" math="0" shadow="0">
      <root>
        <mxCell id="0" />
        <mxCell id="1" parent="0" />
        <mxCell id="5ShDgl6ycvYulcUG2lgo-2" value="+ Teacher" style="swimlane;fontStyle=1;align=center;verticalAlign=top;childLayout=stackLayout;horizontal=1;startSize=26;horizontalStack=0;resizeParent=1;resizeParentMax=0;resizeLast=0;collapsible=1;marginBottom=0;whiteSpace=wrap;html=1;" vertex="1" parent="1">
          <mxGeometry x="70" y="190" width="181" height="110" as="geometry" />
        </mxCell>
        <mxCell id="5ShDgl6ycvYulcUG2lgo-3" value="&amp;nbsp;ID: int&lt;div&gt;&amp;nbsp;name: String&lt;/div&gt;" style="text;strokeColor=none;fillColor=none;align=left;verticalAlign=top;spacingLeft=4;spacingRight=4;overflow=hidden;rotatable=0;points=[[0,0.5],[1,0.5]];portConstraint=eastwest;whiteSpace=wrap;html=1;" vertex="1" parent="5ShDgl6ycvYulcUG2lgo-2">
          <mxGeometry y="26" width="181" height="34" as="geometry" />
        </mxCell>
        <mxCell id="5ShDgl6ycvYulcUG2lgo-4" value="" style="line;strokeWidth=1;fillColor=none;align=left;verticalAlign=middle;spacingTop=-1;spacingLeft=3;spacingRight=3;rotatable=0;labelPosition=right;points=[];portConstraint=eastwest;strokeColor=inherit;" vertex="1" parent="5ShDgl6ycvYulcUG2lgo-2">
          <mxGeometry y="60" width="181" height="8" as="geometry" />
        </mxCell>
        <mxCell id="5ShDgl6ycvYulcUG2lgo-5" value="+ Teacher(ID: int, name: String)&lt;div&gt;+ teach()&lt;/div&gt;" style="text;strokeColor=none;fillColor=none;align=left;verticalAlign=top;spacingLeft=4;spacingRight=4;overflow=hidden;rotatable=0;points=[[0,0.5],[1,0.5]];portConstraint=eastwest;whiteSpace=wrap;html=1;" vertex="1" parent="5ShDgl6ycvYulcUG2lgo-2">
          <mxGeometry y="68" width="181" height="42" as="geometry" />
        </mxCell>
        <mxCell id="5ShDgl6ycvYulcUG2lgo-6" value="+ Department" style="swimlane;fontStyle=1;align=center;verticalAlign=top;childLayout=stackLayout;horizontal=1;startSize=26;horizontalStack=0;resizeParent=1;resizeParentMax=0;resizeLast=0;collapsible=1;marginBottom=0;whiteSpace=wrap;html=1;" vertex="1" parent="1">
          <mxGeometry x="410" y="190" width="330" height="110" as="geometry" />
        </mxCell>
        <mxCell id="5ShDgl6ycvYulcUG2lgo-7" value="&amp;nbsp;deptName: String&lt;div&gt;&amp;nbsp;teachers: Set&amp;lt;Teacher&amp;gt;&lt;/div&gt;" style="text;strokeColor=none;fillColor=none;align=left;verticalAlign=top;spacingLeft=4;spacingRight=4;overflow=hidden;rotatable=0;points=[[0,0.5],[1,0.5]];portConstraint=eastwest;whiteSpace=wrap;html=1;" vertex="1" parent="5ShDgl6ycvYulcUG2lgo-6">
          <mxGeometry y="26" width="330" height="34" as="geometry" />
        </mxCell>
        <mxCell id="5ShDgl6ycvYulcUG2lgo-8" value="" style="line;strokeWidth=1;fillColor=none;align=left;verticalAlign=middle;spacingTop=-1;spacingLeft=3;spacingRight=3;rotatable=0;labelPosition=right;points=[];portConstraint=eastwest;strokeColor=inherit;" vertex="1" parent="5ShDgl6ycvYulcUG2lgo-6">
          <mxGeometry y="60" width="330" height="8" as="geometry" />
        </mxCell>
        <mxCell id="5ShDgl6ycvYulcUG2lgo-9" value="+ Departement(deptName: String, teachers: Set&amp;lt;Teacher&amp;gt;)&lt;div&gt;+ showTeachers()&lt;/div&gt;" style="text;strokeColor=none;fillColor=none;align=left;verticalAlign=top;spacingLeft=4;spacingRight=4;overflow=hidden;rotatable=0;points=[[0,0.5],[1,0.5]];portConstraint=eastwest;whiteSpace=wrap;html=1;" vertex="1" parent="5ShDgl6ycvYulcUG2lgo-6">
          <mxGeometry y="68" width="330" height="42" as="geometry" />
        </mxCell>
        <mxCell id="5ShDgl6ycvYulcUG2lgo-10" value="" style="endArrow=diamondThin;endFill=0;endSize=24;html=1;rounded=0;entryX=0;entryY=0.459;entryDx=0;entryDy=0;entryPerimeter=0;" edge="1" parent="1" target="5ShDgl6ycvYulcUG2lgo-8">
          <mxGeometry width="160" relative="1" as="geometry">
            <mxPoint x="250" y="254" as="sourcePoint" />
            <mxPoint x="490" y="260" as="targetPoint" />
          </mxGeometry>
        </mxCell>
        <mxCell id="5ShDgl6ycvYulcUG2lgo-11" value="0..*" style="text;align=center;fontStyle=0;verticalAlign=middle;spacingLeft=3;spacingRight=3;strokeColor=none;rotatable=0;points=[[0,0.5],[1,0.5]];portConstraint=eastwest;html=1;" vertex="1" parent="1">
          <mxGeometry x="251" y="230" width="30" height="10" as="geometry" />
        </mxCell>
        <mxCell id="5ShDgl6ycvYulcUG2lgo-12" value="0..*" style="text;align=center;fontStyle=0;verticalAlign=middle;spacingLeft=3;spacingRight=3;strokeColor=none;rotatable=0;points=[[0,0.5],[1,0.5]];portConstraint=eastwest;html=1;" vertex="1" parent="1">
          <mxGeometry x="380" y="230" width="30" height="10" as="geometry" />
        </mxCell>
      </root>
    </mxGraphModel>
  </diagram>
</mxfile>
